<mxfile host="Electron" agent="Mozilla/5.0 (X11; Linux x86_64) AppleWebKit/537.36 (KHTML, like Gecko) draw.io/26.0.4 Chrome/128.0.6613.186 Electron/32.2.5 Safari/537.36" version="26.0.4">
  <diagram name="Seite-1" id="rP0z07X_24EouINWbUfi">
    <mxGraphModel dx="1434" dy="871" grid="1" gridSize="10" guides="1" tooltips="1" connect="1" arrows="1" fold="1" page="1" pageScale="1" pageWidth="827" pageHeight="1169" math="0" shadow="0">
      <root>
        <mxCell id="0" />
        <mxCell id="1" parent="0" />
        <mxCell id="BpYb32toqY8cGml7caD_-7" value="" style="group" vertex="1" connectable="0" parent="1">
          <mxGeometry x="40" y="103" width="320" height="159" as="geometry" />
        </mxCell>
        <mxCell id="BpYb32toqY8cGml7caD_-1" value="&lt;font style=&quot;font-size: 36px;&quot;&gt;A&lt;/font&gt;" style="rounded=1;whiteSpace=wrap;html=1;" vertex="1" parent="BpYb32toqY8cGml7caD_-7">
          <mxGeometry width="120" height="60" as="geometry" />
        </mxCell>
        <mxCell id="BpYb32toqY8cGml7caD_-2" value="&lt;font style=&quot;font-size: 36px;&quot;&gt;B&lt;/font&gt;" style="rounded=1;whiteSpace=wrap;html=1;" vertex="1" parent="BpYb32toqY8cGml7caD_-7">
          <mxGeometry x="200" width="120" height="60" as="geometry" />
        </mxCell>
        <mxCell id="BpYb32toqY8cGml7caD_-3" value="&lt;font style=&quot;font-size: 36px;&quot;&gt;C&lt;/font&gt;" style="rounded=1;whiteSpace=wrap;html=1;" vertex="1" parent="BpYb32toqY8cGml7caD_-7">
          <mxGeometry y="138" width="120" height="60" as="geometry" />
        </mxCell>
        <mxCell id="BpYb32toqY8cGml7caD_-4" value="&lt;font style=&quot;font-size: 36px;&quot;&gt;X&lt;/font&gt;" style="rounded=1;whiteSpace=wrap;html=1;fillColor=#ffe6cc;strokeColor=#d79b00;" vertex="1" parent="BpYb32toqY8cGml7caD_-7">
          <mxGeometry x="200" y="138" width="120" height="60" as="geometry" />
        </mxCell>
        <mxCell id="BpYb32toqY8cGml7caD_-5" value="&lt;font style=&quot;font-size: 48px;&quot;&gt;*&lt;/font&gt;" style="endArrow=classic;html=1;rounded=0;entryX=0;entryY=0.5;entryDx=0;entryDy=0;exitX=1;exitY=0.5;exitDx=0;exitDy=0;" edge="1" parent="BpYb32toqY8cGml7caD_-7" source="BpYb32toqY8cGml7caD_-3" target="BpYb32toqY8cGml7caD_-2">
          <mxGeometry width="50" height="50" relative="1" as="geometry">
            <mxPoint x="590" y="380" as="sourcePoint" />
            <mxPoint x="640" y="330" as="targetPoint" />
          </mxGeometry>
        </mxCell>
        <mxCell id="BpYb32toqY8cGml7caD_-6" value="&lt;font style=&quot;font-size: 48px;&quot;&gt;รท&lt;/font&gt;" style="endArrow=classic;html=1;rounded=0;exitX=0;exitY=0.5;exitDx=0;exitDy=0;entryX=1;entryY=0.5;entryDx=0;entryDy=0;" edge="1" parent="BpYb32toqY8cGml7caD_-7" source="BpYb32toqY8cGml7caD_-2" target="BpYb32toqY8cGml7caD_-1">
          <mxGeometry width="50" height="50" relative="1" as="geometry">
            <mxPoint x="590" y="360" as="sourcePoint" />
            <mxPoint x="640" y="310" as="targetPoint" />
            <mxPoint as="offset" />
          </mxGeometry>
        </mxCell>
        <mxCell id="BpYb32toqY8cGml7caD_-8" value="" style="group" vertex="1" connectable="0" parent="1">
          <mxGeometry x="440" y="103" width="320" height="159" as="geometry" />
        </mxCell>
        <mxCell id="BpYb32toqY8cGml7caD_-9" value="&lt;font style=&quot;font-size: 36px;&quot;&gt;A&lt;/font&gt;" style="rounded=1;whiteSpace=wrap;html=1;" vertex="1" parent="BpYb32toqY8cGml7caD_-8">
          <mxGeometry width="120" height="60" as="geometry" />
        </mxCell>
        <mxCell id="BpYb32toqY8cGml7caD_-10" value="&lt;font style=&quot;font-size: 36px;&quot;&gt;X&lt;/font&gt;" style="rounded=1;whiteSpace=wrap;html=1;fillColor=#ffe6cc;strokeColor=#d79b00;" vertex="1" parent="BpYb32toqY8cGml7caD_-8">
          <mxGeometry x="200" width="120" height="60" as="geometry" />
        </mxCell>
        <mxCell id="BpYb32toqY8cGml7caD_-11" value="&lt;font style=&quot;font-size: 36px;&quot;&gt;C&lt;/font&gt;" style="rounded=1;whiteSpace=wrap;html=1;" vertex="1" parent="BpYb32toqY8cGml7caD_-8">
          <mxGeometry y="138" width="120" height="60" as="geometry" />
        </mxCell>
        <mxCell id="BpYb32toqY8cGml7caD_-12" value="&lt;font style=&quot;font-size: 36px;&quot;&gt;B&lt;/font&gt;" style="rounded=1;whiteSpace=wrap;html=1;" vertex="1" parent="BpYb32toqY8cGml7caD_-8">
          <mxGeometry x="200" y="138" width="120" height="60" as="geometry" />
        </mxCell>
        <mxCell id="BpYb32toqY8cGml7caD_-13" value="&lt;font style=&quot;font-size: 48px;&quot;&gt;*&lt;/font&gt;" style="endArrow=classic;html=1;rounded=0;entryX=0;entryY=0.5;entryDx=0;entryDy=0;exitX=1;exitY=0.5;exitDx=0;exitDy=0;" edge="1" parent="BpYb32toqY8cGml7caD_-8" source="BpYb32toqY8cGml7caD_-9" target="BpYb32toqY8cGml7caD_-12">
          <mxGeometry width="50" height="50" relative="1" as="geometry">
            <mxPoint x="590" y="380" as="sourcePoint" />
            <mxPoint x="640" y="330" as="targetPoint" />
          </mxGeometry>
        </mxCell>
        <mxCell id="BpYb32toqY8cGml7caD_-14" value="&lt;font style=&quot;font-size: 48px;&quot;&gt;รท&lt;/font&gt;" style="endArrow=classic;html=1;rounded=0;exitX=0;exitY=0.5;exitDx=0;exitDy=0;" edge="1" parent="BpYb32toqY8cGml7caD_-8" source="BpYb32toqY8cGml7caD_-12">
          <mxGeometry width="50" height="50" relative="1" as="geometry">
            <mxPoint x="590" y="399" as="sourcePoint" />
            <mxPoint x="120" y="169" as="targetPoint" />
            <mxPoint as="offset" />
          </mxGeometry>
        </mxCell>
        <mxCell id="BpYb32toqY8cGml7caD_-15" value="" style="group" vertex="1" connectable="0" parent="1">
          <mxGeometry x="40" y="381" width="320" height="159" as="geometry" />
        </mxCell>
        <mxCell id="BpYb32toqY8cGml7caD_-16" value="&lt;font style=&quot;font-size: 36px;&quot;&gt;A&lt;/font&gt;" style="rounded=1;whiteSpace=wrap;html=1;" vertex="1" parent="BpYb32toqY8cGml7caD_-15">
          <mxGeometry width="120" height="60" as="geometry" />
        </mxCell>
        <mxCell id="BpYb32toqY8cGml7caD_-17" value="&lt;font style=&quot;font-size: 36px;&quot;&gt;B&lt;/font&gt;" style="rounded=1;whiteSpace=wrap;html=1;" vertex="1" parent="BpYb32toqY8cGml7caD_-15">
          <mxGeometry x="200" width="120" height="60" as="geometry" />
        </mxCell>
        <mxCell id="BpYb32toqY8cGml7caD_-18" value="&lt;font style=&quot;font-size: 36px;&quot;&gt;X&lt;/font&gt;" style="rounded=1;whiteSpace=wrap;html=1;fillColor=#ffe6cc;strokeColor=#d79b00;" vertex="1" parent="BpYb32toqY8cGml7caD_-15">
          <mxGeometry y="142" width="120" height="60" as="geometry" />
        </mxCell>
        <mxCell id="BpYb32toqY8cGml7caD_-19" value="&lt;font style=&quot;font-size: 36px;&quot;&gt;C&lt;/font&gt;" style="rounded=1;whiteSpace=wrap;html=1;" vertex="1" parent="BpYb32toqY8cGml7caD_-15">
          <mxGeometry x="200" y="142" width="120" height="60" as="geometry" />
        </mxCell>
        <mxCell id="BpYb32toqY8cGml7caD_-20" value="&lt;font style=&quot;font-size: 48px;&quot;&gt;*&lt;/font&gt;" style="endArrow=classic;html=1;rounded=0;entryX=0;entryY=0.5;entryDx=0;entryDy=0;" edge="1" parent="BpYb32toqY8cGml7caD_-15" target="BpYb32toqY8cGml7caD_-19">
          <mxGeometry width="50" height="50" relative="1" as="geometry">
            <mxPoint x="120" y="30" as="sourcePoint" />
            <mxPoint x="640" y="330" as="targetPoint" />
          </mxGeometry>
        </mxCell>
        <mxCell id="BpYb32toqY8cGml7caD_-21" value="&lt;font style=&quot;font-size: 48px;&quot;&gt;รท&lt;/font&gt;" style="endArrow=classic;html=1;rounded=0;exitX=0.5;exitY=0;exitDx=0;exitDy=0;entryX=0.5;entryY=1;entryDx=0;entryDy=0;" edge="1" parent="BpYb32toqY8cGml7caD_-15" source="BpYb32toqY8cGml7caD_-19" target="BpYb32toqY8cGml7caD_-17">
          <mxGeometry width="50" height="50" relative="1" as="geometry">
            <mxPoint x="590" y="360" as="sourcePoint" />
            <mxPoint x="260" y="109" as="targetPoint" />
            <mxPoint as="offset" />
          </mxGeometry>
        </mxCell>
        <mxCell id="BpYb32toqY8cGml7caD_-22" value="" style="group" vertex="1" connectable="0" parent="1">
          <mxGeometry x="440" y="381" width="320" height="159" as="geometry" />
        </mxCell>
        <mxCell id="BpYb32toqY8cGml7caD_-23" value="&lt;font style=&quot;font-size: 36px;&quot;&gt;X&lt;/font&gt;" style="rounded=1;whiteSpace=wrap;html=1;fillColor=#ffe6cc;strokeColor=#d79b00;" vertex="1" parent="BpYb32toqY8cGml7caD_-22">
          <mxGeometry width="120" height="60" as="geometry" />
        </mxCell>
        <mxCell id="BpYb32toqY8cGml7caD_-24" value="&lt;font style=&quot;font-size: 36px;&quot;&gt;B&lt;/font&gt;" style="rounded=1;whiteSpace=wrap;html=1;" vertex="1" parent="BpYb32toqY8cGml7caD_-22">
          <mxGeometry x="200" width="120" height="60" as="geometry" />
        </mxCell>
        <mxCell id="BpYb32toqY8cGml7caD_-25" value="&lt;font style=&quot;font-size: 36px;&quot;&gt;A&lt;/font&gt;" style="rounded=1;whiteSpace=wrap;html=1;" vertex="1" parent="BpYb32toqY8cGml7caD_-22">
          <mxGeometry y="142" width="120" height="60" as="geometry" />
        </mxCell>
        <mxCell id="BpYb32toqY8cGml7caD_-26" value="&lt;font style=&quot;font-size: 36px;&quot;&gt;C&lt;/font&gt;" style="rounded=1;whiteSpace=wrap;html=1;" vertex="1" parent="BpYb32toqY8cGml7caD_-22">
          <mxGeometry x="200" y="142" width="120" height="60" as="geometry" />
        </mxCell>
        <mxCell id="BpYb32toqY8cGml7caD_-27" value="&lt;font style=&quot;font-size: 48px;&quot;&gt;*&lt;/font&gt;" style="endArrow=classic;html=1;rounded=0;exitX=1;exitY=0.5;exitDx=0;exitDy=0;" edge="1" parent="BpYb32toqY8cGml7caD_-22" source="BpYb32toqY8cGml7caD_-25">
          <mxGeometry width="50" height="50" relative="1" as="geometry">
            <mxPoint x="130" y="129" as="sourcePoint" />
            <mxPoint x="200" y="39" as="targetPoint" />
          </mxGeometry>
        </mxCell>
        <mxCell id="BpYb32toqY8cGml7caD_-28" value="&lt;font style=&quot;font-size: 48px;&quot;&gt;รท&lt;/font&gt;" style="endArrow=classic;html=1;rounded=0;exitX=0.5;exitY=1;exitDx=0;exitDy=0;entryX=0.5;entryY=0;entryDx=0;entryDy=0;" edge="1" parent="BpYb32toqY8cGml7caD_-22" source="BpYb32toqY8cGml7caD_-24" target="BpYb32toqY8cGml7caD_-26">
          <mxGeometry width="50" height="50" relative="1" as="geometry">
            <mxPoint x="590" y="360" as="sourcePoint" />
            <mxPoint x="120" y="130" as="targetPoint" />
            <mxPoint as="offset" />
          </mxGeometry>
        </mxCell>
      </root>
    </mxGraphModel>
  </diagram>
</mxfile>
